<svg version="1.1" id="Layer_1" xmlns="http://www.w3.org/2000/svg" xmlns:xlink="http://www.w3.org/1999/xlink" x="0px" y="0px"
	 width="100%" viewBox="0 0 1024 1024" enable-background="new 0 0 1024 1024" xml:space="preserve">
<path fill="#0A0B0F" opacity="1.000000" stroke="none" 
	d="
M469.000000,1025.000000 
	C312.666656,1025.000000 156.833328,1025.000000 1.000000,1025.000000 
	C1.000000,683.666687 1.000000,342.333344 1.000000,1.000000 
	C342.333344,1.000000 683.666687,1.000000 1025.000000,1.000000 
	C1025.000000,342.333344 1025.000000,683.666687 1025.000000,1025.000000 
	C839.833313,1025.000000 654.666687,1025.000000 469.000000,1025.000000 
M803.389954,444.787567 
	C799.573853,443.259491 795.757812,441.731384 791.283691,439.876404 
	C772.428406,433.934265 753.218994,433.512451 734.100403,437.615265 
	C719.831604,440.677307 705.734619,444.736633 691.804382,449.124084 
	C677.886902,453.507538 664.271912,458.851440 650.524353,463.774261 
	C652.324951,463.998138 654.110901,463.928375 655.788269,463.465363 
	C669.889343,459.573242 683.992310,455.684967 698.053284,451.651031 
	C728.611816,442.884064 759.409668,438.208496 791.677490,446.123993 
	C795.787231,447.426849 799.897034,448.729675 804.520142,450.488464 
	C812.403564,454.517151 820.287048,458.545868 828.170471,462.574554 
	C820.855713,455.774994 813.391235,449.137604 803.389954,444.787567 
M352.841461,579.535767 
	C352.553925,579.359741 352.266418,579.183777 351.546997,578.304382 
	C351.655762,577.482239 351.487000,576.167358 351.921112,575.922791 
	C353.843781,574.839905 355.939636,574.064453 358.683289,573.071716 
	C364.712555,570.238770 368.016754,565.260254 367.772888,558.837463 
	C367.510254,551.921570 363.212799,547.276978 356.794189,544.779480 
	C354.643066,543.942383 352.384583,542.941833 350.141846,542.852539 
	C337.884094,542.364258 325.616211,542.125183 313.351166,541.828186 
	C310.775665,541.765808 308.197357,541.819153 305.692078,541.819153 
	C305.692078,549.707703 305.692078,556.820984 305.402069,564.838501 
	C305.424469,574.395996 305.442780,583.953552 305.472961,593.511047 
	C305.478455,595.257385 304.937469,597.459045 308.491272,597.066895 
	C309.314178,596.998230 310.137085,596.929626 311.646790,596.986206 
	C313.215179,596.922302 314.783569,596.858398 316.946777,597.002258 
	C317.349030,596.677307 317.751251,596.352295 318.424133,595.237854 
	C318.424133,589.619263 318.424133,584.000732 318.424133,578.494446 
	C328.738220,576.915466 337.842010,576.838196 343.911072,586.554626 
	C345.287384,588.758118 347.893860,590.166626 349.425262,592.305420 
	C352.655151,596.816223 356.861725,597.943420 362.658813,596.960754 
	C363.106720,596.898621 363.554596,596.836487 364.778168,596.934692 
	C366.092926,596.865173 367.407715,596.795593 369.815338,596.668274 
	C366.047241,593.070007 363.103058,590.258606 359.914429,586.903992 
	C358.902832,585.950134 357.891235,584.996277 356.640839,583.460266 
	C355.423401,582.318787 354.205963,581.177307 352.841461,579.535767 
M474.383789,425.688721 
	C473.920807,425.764587 473.457825,425.840454 472.086121,425.694611 
	C467.526031,425.479706 462.965912,425.264771 457.850067,424.370880 
	C458.113068,423.878815 458.376068,423.386719 459.333191,422.800049 
	C461.280884,421.673828 463.228577,420.547607 465.893860,419.236450 
	C477.263092,414.159363 488.632355,409.082306 500.766205,403.985291 
	C547.409668,385.844208 595.973450,385.509766 644.974304,388.834381 
	C644.192505,388.000000 643.446716,387.793304 642.686829,387.690613 
	C617.565552,384.295654 592.388184,382.687164 567.054199,384.991394 
	C543.919373,387.095520 521.384644,391.667847 499.118774,400.801239 
	C487.335114,406.159210 475.551453,411.517151 463.093353,417.009735 
	C459.694763,419.251923 456.296173,421.494141 451.990936,423.929657 
	C439.025940,423.634186 426.057465,423.445312 413.096588,423.023590 
	C371.022736,421.654663 328.962921,420.579834 287.046356,425.973816 
	C264.633331,428.858063 242.505203,433.030365 220.252426,440.144714 
	C212.176804,443.156616 204.101196,446.168518 195.301636,449.219452 
	C188.142456,452.688660 180.983276,456.157898 173.105652,459.788361 
	C159.054047,466.805847 145.904648,475.222351 133.822006,485.498444 
	C140.216919,483.893036 146.611832,482.287628 153.776642,480.638153 
	C170.969467,476.666809 187.536423,470.923126 203.469620,463.318878 
	C202.390579,463.046570 201.429031,463.159668 200.510773,463.423462 
	C189.011902,466.727295 177.540970,470.132202 166.002289,473.289917 
	C164.213959,473.779327 162.122910,473.162598 160.903519,473.038422 
	C166.681351,470.074432 172.459183,467.110443 178.954834,464.025726 
	C185.637878,461.022949 192.320923,458.020142 199.761627,454.974884 
	C209.232208,451.849091 218.702789,448.723297 228.981873,445.486237 
	C260.058746,437.084900 291.756256,432.296326 323.857635,431.246704 
	C356.580505,430.176758 389.347565,430.450562 422.095459,430.155365 
	C432.725311,430.059540 443.355743,430.024780 454.918030,430.084686 
	C462.611694,430.063141 470.305359,430.041565 478.918152,430.218567 
	C495.044495,430.218567 511.170807,430.218567 527.297119,430.218567 
	C527.306274,429.453857 527.315369,428.689148 527.324524,427.924438 
	C510.883209,427.287903 494.441925,426.651367 477.281189,425.728210 
	C476.519958,425.835388 475.758698,425.942566 474.383789,425.688721 
M833.623779,427.951660 
	C846.383362,429.897949 859.142883,431.844208 872.531067,434.067505 
	C877.225830,435.034302 881.920532,436.001068 886.815369,437.009064 
	C886.789062,448.489563 881.851807,457.524872 873.668823,466.388092 
	C886.986267,459.742065 894.900696,442.796509 892.831909,428.838348 
	C889.712402,429.548706 886.568054,430.687592 883.367004,430.878906 
	C879.922180,431.084808 876.424194,430.402222 872.373657,429.906097 
	C858.949768,427.877899 845.525818,425.849701 831.400940,423.499176 
	C825.587830,422.696411 819.774658,421.893677 813.211060,420.860107 
	C810.475464,420.605499 807.739868,420.350922 804.504150,419.922607 
	C804.331482,419.958893 804.158752,419.995209 803.383606,419.752838 
	C780.434875,415.952881 757.280701,416.158325 734.269836,417.857025 
	C707.429565,419.838440 680.667419,423.086395 653.941101,426.354492 
	C616.143921,430.976318 578.397156,436.020081 540.653687,441.069000 
	C503.895081,445.986206 467.167664,451.136963 429.679108,456.036865 
	C406.179749,459.094055 382.680420,462.151245 359.181061,465.208466 
	C359.219727,465.709778 359.258392,466.211090 359.297058,466.712402 
	C383.319824,465.676361 407.282135,463.700012 431.983398,460.941132 
	C432.493286,460.809601 433.003174,460.678040 433.741852,460.721161 
	C434.816193,460.546631 435.890564,460.372101 437.868713,460.306366 
	C449.608704,459.031189 461.363983,457.881989 473.085754,456.457031 
	C506.926300,452.343140 540.740723,448.012970 574.588928,443.964600 
	C613.386780,439.324188 652.174011,434.550323 691.035583,430.504425 
	C714.146179,428.098358 737.369629,426.514465 760.583069,425.448975 
	C776.346863,424.725433 792.181335,425.542419 808.827271,425.884979 
	C815.939697,426.333466 823.052185,426.781982 830.541504,427.547394 
	C830.541504,427.547394 831.020020,427.665161 831.020020,427.665161 
	C831.020020,427.665161 831.478577,427.484528 832.195435,427.729553 
	C832.447449,427.712799 832.699402,427.696014 833.623779,427.951660 
M795.349731,402.663910 
	C792.892822,402.125916 790.435852,401.587891 787.331604,400.696930 
	C773.546143,397.422119 759.842102,393.740509 745.957520,390.960876 
	C720.379700,385.840332 694.810181,380.485565 669.028076,376.625031 
	C634.026794,371.384003 598.793152,367.011017 563.302734,370.124634 
	C545.982605,371.644165 528.317810,373.286438 511.714630,378.037537 
	C482.120514,386.506104 453.214020,397.377380 423.277313,407.265808 
	C409.057739,411.427368 394.838196,415.588928 382.121857,419.310547 
	C388.015839,419.310547 395.538849,420.009247 402.869171,419.119873 
	C410.668823,418.173553 418.286011,415.723267 426.724579,413.906860 
	C444.300415,407.461426 461.869690,400.997986 479.453522,394.574463 
	C512.277893,382.583344 546.210022,376.350494 581.107910,377.263794 
	C604.505310,377.876099 627.950073,379.531769 651.200562,382.218292 
	C683.760071,385.980408 715.888367,392.461029 747.345764,401.883972 
	C750.497314,402.828033 753.450867,404.432983 756.496338,405.731201 
	C756.570129,406.439026 756.643860,407.146820 756.717651,407.854614 
	C751.243286,410.452148 745.768982,413.049683 742.179688,414.752777 
	C761.552185,414.752777 782.766541,414.752777 804.834473,415.006409 
	C810.222534,415.334351 815.610535,415.662292 821.746765,416.310455 
	C823.093079,416.414062 824.439392,416.517670 826.532227,416.793427 
	C826.785461,416.760712 827.038757,416.727966 827.946167,416.930756 
	C846.218750,419.203735 864.491394,421.476715 882.763977,423.749664 
	C882.846985,423.304291 882.929932,422.858887 883.012878,422.413483 
	C863.076294,418.106049 843.139648,413.798615 822.560364,409.181061 
	C813.706360,407.127838 804.852295,405.074646 795.349731,402.663910 
M402.842316,575.599243 
	C402.842316,582.638733 402.842316,589.678223 402.842316,596.804321 
	C407.467407,596.804321 411.524841,596.804321 415.840759,596.804321 
	C415.840759,591.005615 415.840759,585.436462 415.994690,579.095642 
	C415.938385,574.300598 415.882080,569.505615 415.981018,563.805847 
	C415.981018,556.549683 415.981018,549.293457 415.981018,542.170532 
	C411.307190,542.170532 407.104614,542.170532 403.066040,542.170532 
	C403.066040,549.727051 403.066040,556.860413 402.855713,564.863464 
	C402.920532,568.169189 402.985321,571.474976 402.842316,575.599243 
M815.093323,574.600952 
	C815.076721,574.060913 815.060181,573.520813 815.315247,572.155701 
	C815.195374,570.430664 815.075500,568.705627 815.254089,566.400818 
	C813.736572,557.026978 808.921692,550.017212 800.262756,545.921570 
	C788.041626,540.140991 775.304077,539.407898 762.317566,542.639954 
	C754.593445,544.562317 747.724121,548.071960 742.292297,555.031982 
	C741.488098,556.540405 740.683960,558.048828 739.394287,559.994812 
	C738.948120,564.655518 738.501953,569.316223 737.971802,574.735962 
	C741.304199,586.494873 750.022156,592.365173 761.690979,596.123108 
	C777.596558,599.835815 792.761780,599.258179 806.788147,588.158386 
	C809.482300,583.756531 812.176392,579.354675 815.093323,574.600952 
M472.022766,561.066650 
	C469.036621,555.514099 466.122711,549.920349 463.003998,544.443298 
	C462.373505,543.335938 461.015717,541.997070 459.911987,541.919434 
	C455.706879,541.623535 451.468536,541.800110 446.525970,541.800110 
	C452.405212,551.720886 457.816742,560.852417 463.337830,570.658264 
	C466.231964,575.550171 469.126129,580.442078 472.147430,586.086487 
	C472.798492,587.246765 473.634827,588.341919 474.069794,589.578247 
	C476.444550,596.327698 481.338898,598.423645 487.952057,597.007019 
	C489.475159,596.680664 491.368591,595.734253 492.110382,594.488770 
	C497.123322,586.072266 501.872498,577.498535 507.136902,568.424072 
	C512.212463,559.782898 517.288086,551.141724 522.781311,541.789551 
	C517.940918,541.789551 514.123535,541.580017 510.352264,541.905457 
	C509.066650,542.016357 507.410583,543.196899 506.752838,544.358276 
	C502.167236,552.455078 497.799438,560.675293 492.931671,569.322815 
	C490.321564,573.899841 487.711456,578.476807 484.984283,583.259094 
	C483.981140,582.168640 483.439941,581.580322 482.742096,580.313599 
	C479.203064,574.128723 475.664032,567.943787 472.022766,561.066650 
M651.321289,541.685242 
	C649.012512,542.141052 646.703796,542.596863 644.239258,543.969299 
	C644.314331,549.713440 644.389404,555.457520 644.241943,562.072937 
	C644.241943,573.634277 644.241943,585.195557 644.241943,596.763062 
	C648.818726,596.763062 652.889954,596.763062 657.526917,596.763062 
	C657.526917,590.443054 657.526917,584.382751 657.526917,578.420776 
	C667.701843,577.046509 676.773315,576.867432 682.828369,586.672363 
	C684.694641,589.694397 687.696045,592.158508 690.574402,594.359131 
	C692.320618,595.694214 694.827332,596.034851 697.883545,596.995300 
	C701.126282,596.995300 704.368958,596.995300 708.679871,596.995300 
	C706.572693,595.095459 705.378784,594.018982 703.896484,592.329590 
	C698.899963,587.156738 693.903442,581.983887 689.671875,577.603027 
	C694.341858,574.276062 698.735107,571.146240 703.705444,567.622314 
	C708.764465,557.962463 705.864075,549.333435 695.908203,544.921875 
	C693.746460,543.963989 691.308777,543.628662 688.232178,542.672607 
	C676.163025,542.418518 664.093933,542.164429 651.321289,541.685242 
M320.449249,448.567230 
	C308.040863,443.900787 295.254272,441.364807 281.961212,442.164001 
	C268.837830,442.953033 256.329254,446.137024 244.008850,452.661407 
	C234.293671,457.491821 225.640106,463.717072 217.486572,472.464539 
	C228.117920,466.670135 237.726120,461.433350 248.085724,456.113007 
	C250.809265,455.128082 253.503769,454.052063 256.260956,453.172607 
	C277.708252,446.331818 299.094757,447.087769 320.910889,454.076202 
	C329.005951,458.090057 337.101013,462.103912 345.196075,466.117737 
	C338.353851,458.756531 330.506897,452.724365 320.449249,448.567230 
M593.059326,561.205139 
	C589.883484,555.625061 586.881470,549.933228 583.414307,544.540466 
	C582.504639,543.125671 580.241516,542.205566 578.440186,541.835144 
	C576.218201,541.378235 573.793213,541.490356 571.525635,541.826538 
	C570.112061,542.036133 568.276184,542.763550 567.577454,543.861633 
	C564.048767,549.407043 560.831177,555.150269 557.040710,561.275757 
	C552.444519,569.104126 547.848328,576.932434 542.821838,585.212158 
	C540.548584,588.950806 538.275391,592.689453 535.657898,596.994263 
	C540.174194,596.994263 543.921021,597.126221 547.648010,596.911743 
	C548.730835,596.849487 550.153809,596.050964 550.733215,595.148560 
	C552.385681,592.574524 553.684387,589.773254 555.694946,586.542725 
	C557.051086,585.672974 558.392517,584.077332 559.765808,584.049377 
	C569.878357,583.843140 579.999146,583.859375 590.112366,584.058838 
	C591.582764,584.087769 593.026489,585.464966 594.707947,586.913696 
	C600.862061,598.090820 600.862061,598.090820 614.405579,596.494568 
	C611.097717,591.086914 607.929077,585.906677 604.499878,580.029358 
	C600.728271,573.998413 596.956665,567.967468 593.059326,561.205139 
M203.556274,565.778931 
	C203.633972,567.768738 203.711655,569.758484 203.515259,572.427979 
	C203.515259,580.541992 203.515259,588.655945 203.515259,597.050903 
	C210.430573,597.050903 216.765518,597.306396 223.071533,596.988159 
	C231.518234,596.561829 240.166199,596.656982 248.319946,594.768005 
	C258.574707,592.392273 267.568481,587.226990 271.419739,575.385498 
	C271.536499,572.253113 271.653259,569.120728 271.885529,565.233643 
	C269.106628,553.349548 260.818115,546.142334 249.667953,544.381653 
	C234.593170,542.001099 219.162292,541.875427 203.819061,540.777710 
	C203.819061,549.846680 203.819061,557.430237 203.556274,565.778931 
M689.175903,419.106506 
	C698.043762,417.744507 706.966492,416.663208 715.763916,414.941193 
	C724.487122,413.233673 733.540283,412.302124 742.502625,406.766479 
	C737.076233,405.658478 732.952209,404.816406 728.828186,403.974304 
	C728.999695,404.449036 729.171204,404.923767 729.342651,405.398529 
	C726.705566,406.910370 724.239441,409.106781 721.401794,409.815216 
	C709.344971,412.825165 697.178040,415.394012 685.051331,418.123962 
	C685.082275,418.478546 685.113159,418.833130 685.144104,419.187714 
	C686.218628,419.187714 687.293091,419.187714 689.175903,419.106506 
M544.733398,428.654724 
	C539.205200,428.654724 533.676941,428.654724 528.148743,428.654724 
	C528.157898,429.041229 528.166992,429.427704 528.176147,429.814209 
	C536.933105,429.814209 545.690063,429.814209 554.447021,429.814209 
	C554.453491,429.457184 554.459961,429.100189 554.466431,428.743164 
	C551.533569,428.743164 548.600647,428.743164 544.733398,428.654724 
M346.474823,467.494232 
	C346.474823,467.494232 346.510406,467.503510 346.474823,467.494232 
z"/>
<path fill="#F2F2F2" opacity="1.000000" stroke="none" 
	d="
M424.019989,407.243896 
	C453.214020,397.377380 482.120514,386.506104 511.714630,378.037537 
	C528.317810,373.286438 545.982605,371.644165 563.302734,370.124634 
	C598.793152,367.011017 634.026794,371.384003 669.028076,376.625031 
	C694.810181,380.485565 720.379700,385.840332 745.957520,390.960876 
	C759.842102,393.740509 773.546143,397.422119 787.418152,401.121948 
	C783.171814,403.288727 778.701294,404.763458 774.569214,406.894531 
	C772.739807,407.838043 771.595642,410.110077 770.140381,411.779022 
	C770.512695,412.175720 770.885010,412.572388 771.257324,412.969055 
	C776.852051,412.969055 782.446777,412.969055 788.406860,412.972778 
	C789.503113,412.975922 790.233948,412.975403 791.385315,412.981995 
	C793.208923,412.989563 794.612061,412.990021 796.440430,412.988037 
	C799.237427,413.574615 801.609192,414.163696 803.980896,414.752777 
	C782.766541,414.752777 761.552185,414.752777 742.179688,414.752777 
	C745.768982,413.049683 751.243286,410.452148 756.717651,407.854614 
	C756.643860,407.146820 756.570129,406.439026 756.496338,405.731201 
	C753.450867,404.432983 750.497314,402.828033 747.345764,401.883972 
	C715.888367,392.461029 683.760071,385.980408 651.200562,382.218292 
	C627.950073,379.531769 604.505310,377.876099 581.107910,377.263794 
	C546.210022,376.350494 512.277893,382.583344 479.453522,394.574463 
	C461.869690,400.997986 444.300415,407.461426 426.348206,413.559784 
	C425.321228,411.223114 424.670593,409.233521 424.019989,407.243896 
z"/>
<path fill="#EFEFF0" opacity="1.000000" stroke="none" 
	d="
M433.513062,460.546509 
	C433.003174,460.678040 432.493286,460.809601 431.444702,459.724426 
	C430.746185,457.733521 430.586365,456.959381 430.426544,456.185181 
	C467.167664,451.136963 503.895081,445.986206 540.653687,441.069000 
	C578.397156,436.020081 616.143921,430.976318 653.941101,426.354492 
	C680.667419,423.086395 707.429565,419.838440 734.269836,417.857025 
	C757.280701,416.158325 780.434875,415.952881 803.427612,420.149170 
	C801.750732,421.154602 800.029785,421.763672 798.308899,422.372772 
	C798.442017,422.802032 798.575134,423.231323 798.708252,423.660583 
	C800.901062,423.660583 803.093872,423.660583 805.600769,423.660583 
	C805.372192,422.294495 805.188232,421.195404 805.004272,420.096313 
	C807.739868,420.350922 810.475464,420.605499 813.309998,421.224731 
	C811.241028,422.471680 807.307678,421.007263 807.984192,425.670471 
	C792.181335,425.542419 776.346863,424.725433 760.583069,425.448975 
	C737.369629,426.514465 714.146179,428.098358 691.035583,430.504425 
	C652.174011,434.550323 613.386780,439.324188 574.588928,443.964600 
	C540.740723,448.012970 506.926300,452.343140 473.085754,456.457031 
	C461.363983,457.881989 449.608704,459.031189 437.394348,459.848724 
	C436.126282,458.748291 435.332611,458.105530 434.538940,457.462738 
	C434.196960,458.490662 433.855011,459.518585 433.513062,460.546509 
z"/>
<path fill="#F2F2F2" opacity="1.000000" stroke="none" 
	d="
M453.985901,429.962067 
	C443.355743,430.024780 432.725311,430.059540 422.095459,430.155365 
	C389.347565,430.450562 356.580505,430.176758 323.857635,431.246704 
	C291.756256,432.296326 260.058746,437.084900 228.401260,445.211426 
	C225.550827,443.348145 223.281006,441.759644 221.011169,440.171143 
	C242.505203,433.030365 264.633331,428.858063 287.046356,425.973816 
	C328.962921,420.579834 371.022736,421.654663 413.096588,423.023590 
	C426.057465,423.445312 439.025940,423.634186 452.471985,424.238678 
	C453.297302,426.352478 453.641602,428.157288 453.985901,429.962067 
z"/>
<path fill="#D0D0D1" opacity="1.000000" stroke="none" 
	d="
M703.128357,568.016418 
	C698.735107,571.146240 694.341858,574.276062 689.671875,577.603027 
	C693.903442,581.983887 698.899963,587.156738 703.684814,592.610657 
	C702.193604,592.338318 700.914001,591.784851 698.909302,590.917786 
	C698.214111,593.059021 697.603271,594.940674 696.992371,596.822266 
	C694.827332,596.034851 692.320618,595.694214 690.574402,594.359131 
	C687.696045,592.158508 684.694641,589.694397 682.828369,586.672363 
	C676.773315,576.867432 667.701843,577.046509 657.526917,578.420776 
	C657.526917,584.382751 657.526917,590.443054 657.526917,596.763062 
	C652.889954,596.763062 648.818726,596.763062 644.241943,596.763062 
	C644.241943,585.195557 644.241943,573.634277 644.766602,561.603516 
	C649.302246,562.115112 653.313232,563.096069 657.469360,564.476074 
	C657.728088,566.298035 657.841797,567.720825 657.986755,569.535828 
	C665.300781,569.535828 672.296143,570.049072 679.165771,569.341370 
	C683.222595,568.923401 687.080383,566.572510 691.277588,565.334961 
	C693.276306,566.792358 695.024963,568.005737 697.123047,569.461548 
	C698.753601,569.069153 700.940979,568.542786 703.128357,568.016418 
z"/>
<path fill="#EFEFF0" opacity="1.000000" stroke="none" 
	d="
M305.692078,563.934204 
	C305.692078,556.820984 305.692078,549.707703 305.692078,541.819153 
	C308.197357,541.819153 310.775665,541.765808 313.351166,541.828186 
	C325.616211,542.125183 337.884094,542.364258 350.141846,542.852539 
	C352.384583,542.941833 354.643066,543.942383 356.794189,544.779480 
	C363.212799,547.276978 367.510254,551.921570 367.772888,558.837463 
	C368.016754,565.260254 364.712555,570.238770 358.368591,572.789307 
	C360.214630,568.501953 358.484528,566.072937 352.755981,564.516968 
	C355.517517,556.634460 352.641968,551.851624 343.899231,551.121277 
	C335.734497,550.439209 327.467987,550.975403 318.476868,550.975403 
	C318.476868,556.058838 318.476868,561.133484 318.018799,566.174011 
	C313.604523,565.404663 309.648285,564.669434 305.692078,563.934204 
z"/>
<path fill="#D4D4D6" opacity="1.000000" stroke="none" 
	d="
M742.863770,554.711548 
	C747.724121,548.071960 754.593445,544.562317 762.317566,542.639954 
	C775.304077,539.407898 788.041626,540.140991 800.262756,545.921570 
	C808.921692,550.017212 813.736572,557.026978 814.811768,566.600952 
	C810.281067,567.132690 806.192688,567.464294 801.988525,567.501343 
	C800.597290,559.356201 795.871277,554.472351 788.538513,551.981628 
	C776.304382,547.826111 765.062256,549.414612 754.742798,558.045532 
	C750.370483,558.495667 748.788147,559.930603 752.156616,563.760742 
	C751.725525,566.085999 751.318298,568.041992 750.576782,570.071167 
	C748.613708,570.930115 746.985107,571.715942 745.356445,572.501770 
	C744.616699,570.412415 743.597412,568.372498 743.217102,566.219727 
	C742.848633,564.133667 743.137146,561.931580 743.137146,559.745850 
	C744.310852,559.535461 745.980652,559.236084 748.623413,558.762329 
	C745.994324,556.913269 744.429016,555.812439 742.863770,554.711548 
z"/>
<path fill="#D9DADC" opacity="1.000000" stroke="none" 
	d="
M305.547058,564.386353 
	C309.648285,564.669434 313.604523,565.404663 318.136841,566.439636 
	C318.624908,567.106445 318.536896,567.473572 318.262329,567.966919 
	C318.247009,568.358093 318.418243,568.622986 318.786591,568.930298 
	C319.290741,569.223083 319.597809,569.473328 320.066467,569.979492 
	C320.844421,570.074158 321.460785,569.912964 322.485291,569.614502 
	C324.885559,569.563721 326.877655,569.650146 329.138275,570.065796 
	C332.946716,570.232178 336.486694,570.069397 340.318420,569.787659 
	C341.021179,569.628113 341.432190,569.587524 341.995483,569.752319 
	C342.495422,569.753784 342.843079,569.549805 343.489746,569.220337 
	C346.736176,567.694336 349.683594,566.293823 352.631042,564.893372 
	C358.484528,566.072937 360.214630,568.501953 358.013367,572.842285 
	C355.939636,574.064453 353.843781,574.839905 351.921112,575.922791 
	C351.487000,576.167358 351.655762,577.482239 351.447571,578.827759 
	C347.399078,582.543213 346.772095,587.102234 349.792175,588.984680 
	C352.242218,590.511841 354.337463,592.608215 357.345551,595.070557 
	C358.145569,595.367188 360.070374,596.080994 361.995178,596.794800 
	C356.861725,597.943420 352.655151,596.816223 349.425262,592.305420 
	C347.893860,590.166626 345.287384,588.758118 343.911072,586.554626 
	C337.842010,576.838196 328.738220,576.915466 318.424133,578.494446 
	C318.424133,584.000732 318.424133,589.619263 317.821594,595.784790 
	C316.929993,596.486084 316.640991,596.640320 316.351959,596.794495 
	C314.783569,596.858398 313.215179,596.922302 311.107788,596.712646 
	C309.723480,596.579285 308.878174,596.719604 308.032867,596.859924 
	C304.937469,597.459045 305.478455,595.257385 305.472961,593.511047 
	C305.442780,583.953552 305.424469,574.395996 305.547058,564.386353 
z"/>
<path fill="#D0D0D1" opacity="1.000000" stroke="none" 
	d="
M271.003845,576.001648 
	C267.568481,587.226990 258.574707,592.392273 248.319946,594.768005 
	C240.166199,596.656982 231.518234,596.561829 223.071533,596.988159 
	C216.765518,597.306396 210.430573,597.050903 203.515259,597.050903 
	C203.515259,588.655945 203.515259,580.541992 204.177826,572.189697 
	C206.228455,571.965942 207.616516,571.980530 209.274429,572.261230 
	C211.791489,573.067993 214.038681,573.608704 216.437134,574.578003 
	C216.481995,578.640686 216.375565,582.274719 216.106598,586.020874 
	C216.061615,586.396057 216.179184,586.659241 216.561707,587.243652 
	C224.108566,587.594299 231.457306,588.255432 238.655502,587.493774 
	C247.736649,586.532837 255.231384,582.489075 258.490082,572.981812 
	C262.054626,575.636230 265.134521,578.806091 269.482483,574.972168 
	C269.597534,574.870728 270.479523,575.638977 271.003845,576.001648 
z"/>
<path fill="#EFEFF0" opacity="1.000000" stroke="none" 
	d="
M203.819061,565.013855 
	C203.819061,557.430237 203.819061,549.846680 203.819061,540.777710 
	C219.162292,541.875427 234.593170,542.001099 249.667953,544.381653 
	C260.818115,546.142334 269.106628,553.349548 271.497803,565.513428 
	C268.464020,562.645020 262.402344,562.281555 257.764038,564.736938 
	C255.544144,558.506226 251.208023,555.019775 245.467407,552.947144 
	C236.010544,549.532715 226.326477,551.435425 216.471405,550.861938 
	C216.471405,556.076599 216.471405,560.533325 216.039658,564.991943 
	C211.678299,565.000488 207.748672,565.007141 203.819061,565.013855 
z"/>
<path fill="#DFDFE0" opacity="1.000000" stroke="none" 
	d="
M543.252136,584.760803 
	C547.848328,576.932434 552.444519,569.104126 557.611572,561.232178 
	C561.396606,562.575684 564.610657,563.962830 567.731934,565.709106 
	C566.047302,568.871826 564.455627,571.675537 562.703979,574.760864 
	C571.222473,574.760864 579.130981,574.760864 587.576111,574.760864 
	C585.801025,571.494507 584.323792,568.776184 583.259521,566.042480 
	C585.376587,565.565002 587.156067,565.279053 588.763184,564.590759 
	C590.328857,563.920227 591.718262,562.837952 593.185059,561.936462 
	C596.956665,567.967468 600.728271,573.998413 604.268555,580.585083 
	C602.697937,586.306213 597.770142,584.719055 594.482605,586.218323 
	C593.026489,585.464966 591.582764,584.087769 590.112366,584.058838 
	C579.999146,583.859375 569.878357,583.843140 559.765808,584.049377 
	C558.392517,584.077332 557.051086,585.672974 555.072632,586.665405 
	C550.717651,586.112244 546.984863,585.436523 543.252136,584.760803 
z"/>
<path fill="#E3E3E5" opacity="1.000000" stroke="none" 
	d="
M790.989746,445.798737 
	C759.409668,438.208496 728.611816,442.884064 698.053284,451.651031 
	C683.992310,455.684967 669.889343,459.573242 655.788269,463.465363 
	C654.110901,463.928375 652.324951,463.998138 650.524353,463.774261 
	C664.271912,458.851440 677.886902,453.507538 691.804382,449.124084 
	C705.734619,444.736633 719.831604,440.677307 734.100403,437.615265 
	C753.218994,433.512451 772.428406,433.934265 791.569092,440.392395 
	C791.566223,442.538483 791.278015,444.168610 790.989746,445.798737 
z"/>
<path fill="#DFDFE0" opacity="1.000000" stroke="none" 
	d="
M499.889160,400.724701 
	C521.384644,391.667847 543.919373,387.095520 567.054199,384.991394 
	C592.388184,382.687164 617.565552,384.295654 642.686829,387.690613 
	C643.446716,387.793304 644.192505,388.000000 644.974304,388.834381 
	C595.973450,385.509766 547.409668,385.844208 500.376801,403.584961 
	C499.954651,402.364685 499.921906,401.544678 499.889160,400.724701 
z"/>
<path fill="#EAEAEB" opacity="1.000000" stroke="none" 
	d="
M567.824768,565.349976 
	C564.610657,563.962830 561.396606,562.575684 557.843506,561.006348 
	C560.831177,555.150269 564.048767,549.407043 567.577454,543.861633 
	C568.276184,542.763550 570.112061,542.036133 571.525635,541.826538 
	C573.793213,541.490356 576.218201,541.378235 578.440186,541.835144 
	C580.241516,542.205566 582.504639,543.125671 583.414307,544.540466 
	C586.881470,549.933228 589.883484,555.625061 593.122192,561.570801 
	C591.718262,562.837952 590.328857,563.920227 588.763184,564.590759 
	C587.156067,565.279053 585.376587,565.565002 582.950012,565.888916 
	C580.022827,561.760742 577.818176,557.770691 575.348328,553.300781 
	C572.634338,557.647278 570.229553,561.498596 567.824768,565.349976 
z"/>
<path fill="#E6E6E8" opacity="1.000000" stroke="none" 
	d="
M244.711929,452.459320 
	C256.329254,446.137024 268.837830,442.953033 281.961212,442.164001 
	C295.254272,441.364807 308.040863,443.900787 320.567841,449.171021 
	C320.597687,451.108795 320.508942,452.442780 320.420166,453.776794 
	C299.094757,447.087769 277.708252,446.331818 256.260956,453.172607 
	C253.503769,454.052063 250.809265,455.128082 247.396301,455.930939 
	C246.041885,454.652344 245.376907,453.555847 244.711929,452.459320 
z"/>
<path fill="#D7D7D8" opacity="1.000000" stroke="none" 
	d="
M506.707001,568.975708 
	C501.872498,577.498535 497.123322,586.072266 492.110382,594.488770 
	C491.368591,595.734253 489.475159,596.680664 487.952057,597.007019 
	C481.338898,598.423645 476.444550,596.327698 474.069794,589.578247 
	C473.634827,588.341919 472.798492,587.246765 472.538971,585.618469 
	C476.253265,583.764282 479.575989,582.378174 482.898743,580.992004 
	C483.439941,581.580322 483.981140,582.168640 484.984283,583.259094 
	C487.711456,578.476807 490.321564,573.899841 493.586914,569.118652 
	C498.397095,568.934814 502.552063,568.955261 506.707001,568.975708 
z"/>
<path fill="#EAEAEB" opacity="1.000000" stroke="none" 
	d="
M657.324219,564.077026 
	C653.313232,563.096069 649.302246,562.115112 644.877808,561.167908 
	C644.389404,555.457520 644.314331,549.713440 644.634033,543.440796 
	C647.360840,542.578308 649.692810,542.244324 652.024780,541.910278 
	C664.093933,542.164429 676.163025,542.418518 688.350525,543.106323 
	C684.251709,544.214172 679.752258,544.548645 679.597534,550.643188 
	C678.153442,550.667908 677.101562,550.633911 675.879883,550.262817 
	C670.121582,550.134033 664.533081,550.342468 658.600830,550.699585 
	C657.923523,551.209106 657.590027,551.570007 656.991089,552.132690 
	C656.921570,554.249207 657.117432,556.163940 657.414307,558.498169 
	C657.451660,560.637390 657.387939,562.357239 657.324219,564.077026 
z"/>
<path fill="#BFC0C2" opacity="1.000000" stroke="none" 
	d="
M806.161804,588.449829 
	C792.761780,599.258179 777.596558,599.835815 761.404785,595.581909 
	C761.737976,592.115723 762.357483,589.190674 763.342529,586.321899 
	C775.549194,590.899231 786.613953,589.532898 797.222046,582.063477 
	C800.439148,584.230652 803.300476,586.340210 806.161804,588.449829 
z"/>
<path fill="#E6E6E8" opacity="1.000000" stroke="none" 
	d="
M506.921936,568.699890 
	C502.552063,568.955261 498.397095,568.934814 493.802002,568.885132 
	C497.799438,560.675293 502.167236,552.455078 506.752838,544.358276 
	C507.410583,543.196899 509.066650,542.016357 510.352264,541.905457 
	C514.123535,541.580017 517.940918,541.789551 522.781311,541.789551 
	C517.288086,551.141724 512.212463,559.782898 506.921936,568.699890 
z"/>
<path fill="#CECED0" opacity="1.000000" stroke="none" 
	d="
M762.976990,586.265625 
	C762.357483,589.190674 761.737976,592.115723 761.051208,595.411377 
	C750.022156,592.365173 741.304199,586.494873 738.273926,574.064392 
	C739.010681,568.780945 739.445251,564.169128 739.879761,559.557251 
	C740.683960,558.048828 741.488098,556.540405 742.578003,554.871765 
	C744.429016,555.812439 745.994324,556.913269 748.623413,558.762329 
	C745.980652,559.236084 744.310852,559.535461 743.137146,559.745850 
	C743.137146,561.931580 742.848633,564.133667 743.217102,566.219727 
	C743.597412,568.372498 744.616699,570.412415 745.356445,572.501770 
	C746.985107,571.715942 748.613708,570.930115 750.739929,570.407959 
	C752.522583,577.848145 755.918762,583.435364 762.976990,586.265625 
z"/>
<path fill="#DFDFE0" opacity="1.000000" stroke="none" 
	d="
M679.989624,550.584595 
	C679.752258,544.548645 684.251709,544.214172 688.733521,543.273315 
	C691.308777,543.628662 693.746460,543.963989 695.908203,544.921875 
	C705.864075,549.333435 708.764465,557.962463 703.416870,567.819336 
	C700.940979,568.542786 698.753601,569.069153 697.123047,569.461548 
	C695.024963,568.005737 693.276306,566.792358 691.395630,564.982056 
	C694.055054,558.357971 693.554504,556.490234 687.976562,551.954956 
	C686.887268,551.536377 685.850769,551.479675 684.409912,551.352356 
	C682.666931,551.049316 681.328308,550.816956 679.989624,550.584595 
z"/>
<path fill="#EFEFF0" opacity="1.000000" stroke="none" 
	d="
M463.228271,569.983948 
	C457.816742,560.852417 452.405212,551.720886 446.525970,541.800110 
	C451.468536,541.800110 455.706879,541.623535 459.911987,541.919434 
	C461.015717,541.997070 462.373505,543.335938 463.003998,544.443298 
	C466.122711,549.920349 469.036621,555.514099 471.870422,561.700867 
	C468.888153,564.884705 466.058197,567.434326 463.228271,569.983948 
z"/>
<path fill="#D9DADC" opacity="1.000000" stroke="none" 
	d="
M430.052826,456.111023 
	C430.586365,456.959381 430.746185,457.733521 431.047516,459.684937 
	C407.282135,463.700012 383.319824,465.676361 359.297058,466.712402 
	C359.258392,466.211090 359.219727,465.709778 359.181061,465.208466 
	C382.680420,462.151245 406.179749,459.094055 430.052826,456.111023 
z"/>
<path fill="#B9BABD" opacity="1.000000" stroke="none" 
	d="
M153.006744,480.682190 
	C146.611832,482.287628 140.216919,483.893036 133.822006,485.498444 
	C145.904648,475.222351 159.054047,466.805847 173.531464,460.076813 
	C175.383850,461.625671 176.810440,462.886047 178.237030,464.146454 
	C172.459183,467.110443 166.681351,470.074432 160.171936,473.069153 
	C157.295807,475.627319 155.151276,478.154755 153.006744,480.682190 
z"/>
<path fill="#CECED0" opacity="1.000000" stroke="none" 
	d="
M825.785706,416.621277 
	C824.439392,416.517670 823.093079,416.414062 821.391113,415.766174 
	C821.757996,413.311646 822.480530,411.401398 823.203064,409.491180 
	C843.139648,413.798615 863.076294,418.106049 883.012878,422.413483 
	C882.929932,422.858887 882.846985,423.304291 882.763977,423.749664 
	C864.491394,421.476715 846.218750,419.203735 827.475952,416.561981 
	C826.599121,416.335907 826.192383,416.478577 825.785706,416.621277 
z"/>
<path fill="#EFEFF0" opacity="1.000000" stroke="none" 
	d="
M403.066040,563.993835 
	C403.066040,556.860413 403.066040,549.727051 403.066040,542.170532 
	C407.104614,542.170532 411.307190,542.170532 415.981018,542.170532 
	C415.981018,549.293457 415.981018,556.549683 415.411438,564.073853 
	C410.916595,564.225830 406.991333,564.109802 403.066040,563.993835 
z"/>
<path fill="#A3A3A5" opacity="1.000000" stroke="none" 
	d="
M872.949402,430.107300 
	C876.424194,430.402222 879.922180,431.084808 883.367004,430.878906 
	C886.568054,430.687592 889.712402,429.548706 892.831909,428.838348 
	C894.900696,442.796509 886.986267,459.742065 873.668823,466.388092 
	C881.851807,457.524872 886.789062,448.489563 886.815369,437.009064 
	C881.920532,436.001068 877.225830,435.034302 872.127563,433.590515 
	C870.862915,432.576385 870.001892,432.039246 869.137939,431.505066 
	C870.406494,431.041077 871.677917,430.574188 872.949402,430.107300 
z"/>
<path fill="#E3E3E5" opacity="1.000000" stroke="none" 
	d="
M423.648651,407.254883 
	C424.670593,409.233521 425.321228,411.223114 425.977356,413.571167 
	C418.286011,415.723267 410.668823,418.173553 402.869171,419.119873 
	C395.538849,420.009247 388.015839,419.310547 382.121857,419.310547 
	C394.838196,415.588928 409.057739,411.427368 423.648651,407.254883 
z"/>
<path fill="#C9C9CB" opacity="1.000000" stroke="none" 
	d="
M806.474976,588.304077 
	C803.300476,586.340210 800.439148,584.230652 797.382324,581.749268 
	C798.826050,576.850281 800.465210,572.323120 802.104370,567.795898 
	C806.192688,567.464294 810.281067,567.132690 814.662476,566.890808 
	C815.075500,568.705627 815.195374,570.430664 814.970337,572.711548 
	C814.707092,573.829285 814.788818,574.391052 814.870483,574.952881 
	C812.176392,579.354675 809.482300,583.756531 806.474976,588.304077 
z"/>
<path fill="#E3E3E5" opacity="1.000000" stroke="none" 
	d="
M463.283051,570.321106 
	C466.058197,567.434326 468.888153,564.884705 471.921539,562.046997 
	C475.664032,567.943787 479.203064,574.128723 482.820435,580.652832 
	C479.575989,582.378174 476.253265,583.764282 472.475403,585.242188 
	C469.126129,580.442078 466.231964,575.550171 463.283051,570.321106 
z"/>
<path fill="#E3E3E5" opacity="1.000000" stroke="none" 
	d="
M688.771729,419.147095 
	C687.293091,419.187714 686.218628,419.187714 685.144104,419.187714 
	C685.113159,418.833130 685.082275,418.478546 685.051331,418.123962 
	C697.178040,415.394012 709.344971,412.825165 721.401794,409.815216 
	C724.239441,409.106781 726.705566,406.910370 729.342651,405.398529 
	C729.171204,404.923767 728.999695,404.449036 728.828186,403.974304 
	C732.952209,404.816406 737.076233,405.658478 742.502625,406.766479 
	C733.540283,412.302124 724.487122,413.233673 715.763916,414.941193 
	C706.966492,416.663208 698.043762,417.744507 688.771729,419.147095 
z"/>
<path fill="#D0D0D1" opacity="1.000000" stroke="none" 
	d="
M415.840759,579.867371 
	C415.840759,585.436462 415.840759,591.005615 415.840759,596.804321 
	C411.524841,596.804321 407.467407,596.804321 402.842316,596.804321 
	C402.842316,589.678223 402.842316,582.638733 403.365814,575.272095 
	C407.744415,576.898254 410.445374,581.653809 415.840759,579.867371 
z"/>
<path fill="#E3E3E5" opacity="1.000000" stroke="none" 
	d="
M822.881714,409.336121 
	C822.480530,411.401398 821.757996,413.311646 821.017029,415.606049 
	C815.610535,415.662292 810.222534,415.334351 804.407715,414.879578 
	C801.609192,414.163696 799.237427,413.574615 796.483276,412.634338 
	C799.494385,409.157928 795.659729,406.112793 795.998291,403.021454 
	C804.852295,405.074646 813.706360,407.127838 822.881714,409.336121 
z"/>
<path fill="#EFEFF0" opacity="1.000000" stroke="none" 
	d="
M795.674011,402.842682 
	C795.659729,406.112793 799.494385,409.157928 796.058044,412.636780 
	C794.612061,412.990021 793.208923,412.989563 791.334961,412.661987 
	C789.923218,412.546234 788.982361,412.757660 788.041504,412.969055 
	C782.446777,412.969055 776.852051,412.969055 771.257324,412.969055 
	C770.885010,412.572388 770.512695,412.175720 770.140381,411.779022 
	C771.595642,410.110077 772.739807,407.838043 774.569214,406.894531 
	C778.701294,404.763458 783.171814,403.288727 787.741821,401.298462 
	C790.435852,401.587891 792.892822,402.125916 795.674011,402.842682 
z"/>
<path fill="#E6E6E8" opacity="1.000000" stroke="none" 
	d="
M220.631805,440.157928 
	C223.281006,441.759644 225.550827,443.348145 227.997009,445.267059 
	C218.702789,448.723297 209.232208,451.849091 199.368149,454.637726 
	C197.991638,452.593842 197.008621,450.887146 196.025589,449.180420 
	C204.101196,446.168518 212.176804,443.156616 220.631805,440.157928 
z"/>
<path fill="#BFC0C2" opacity="1.000000" stroke="none" 
	d="
M153.391693,480.660156 
	C155.151276,478.154755 157.295807,475.627319 159.806091,473.078613 
	C162.122910,473.162598 164.213959,473.779327 166.002289,473.289917 
	C177.540970,470.132202 189.011902,466.727295 200.510773,463.423462 
	C201.429031,463.159668 202.390579,463.046570 203.469620,463.318878 
	C187.536423,470.923126 170.969467,476.666809 153.391693,480.660156 
z"/>
<path fill="#D0D0D1" opacity="1.000000" stroke="none" 
	d="
M594.595276,586.566040 
	C597.770142,584.719055 602.697937,586.306213 604.398804,580.933594 
	C607.929077,585.906677 611.097717,591.086914 614.405579,596.494568 
	C600.862061,598.090820 600.862061,598.090820 594.595276,586.566040 
z"/>
<path fill="#DFDFE0" opacity="1.000000" stroke="none" 
	d="
M415.917725,579.481506 
	C410.445374,581.653809 407.744415,576.898254 403.469727,574.862793 
	C402.985321,571.474976 402.920532,568.169189 402.960876,564.428650 
	C406.991333,564.109802 410.916595,564.225830 415.333832,564.526184 
	C415.882080,569.505615 415.938385,574.300598 415.917725,579.481506 
z"/>
<path fill="#B9BABD" opacity="1.000000" stroke="none" 
	d="
M872.661499,430.006714 
	C871.677917,430.574188 870.406494,431.041077 869.137939,431.505066 
	C870.001892,432.039246 870.862915,432.576385 871.813232,433.451996 
	C859.142883,431.844208 846.383362,429.897949 833.181396,427.565796 
	C832.318909,427.281433 831.898743,427.382996 831.478577,427.484558 
	C831.478577,427.484528 831.020020,427.665161 831.020020,427.665161 
	C831.020020,427.665161 830.541504,427.547394 830.190918,427.092407 
	C828.981445,426.244873 828.122681,425.852356 827.507690,425.571259 
	C829.024414,424.993652 830.563171,424.407593 832.101929,423.821533 
	C845.525818,425.849701 858.949768,427.877899 872.661499,430.006714 
z"/>
<path fill="#D0D0D1" opacity="1.000000" stroke="none" 
	d="
M195.663605,449.199951 
	C197.008621,450.887146 197.991638,452.593842 198.989319,454.658936 
	C192.320923,458.020142 185.637878,461.022949 178.595932,464.086090 
	C176.810440,462.886047 175.383850,461.625671 173.890686,459.996185 
	C180.983276,456.157898 188.142456,452.688660 195.663605,449.199951 
z"/>
<path fill="#E6E6E8" opacity="1.000000" stroke="none" 
	d="
M257.979553,565.005920 
	C262.402344,562.281555 268.464020,562.645020 271.440063,565.890747 
	C271.653259,569.120728 271.536499,572.253113 271.211792,575.693604 
	C270.479523,575.638977 269.597534,574.870728 269.482483,574.972168 
	C265.134521,578.806091 262.054626,575.636230 258.453247,572.598755 
	C258.029510,569.716797 258.004517,567.361328 257.979553,565.005920 
z"/>
<path fill="#F2F2F2" opacity="1.000000" stroke="none" 
	d="
M478.000610,426.014832 
	C494.441925,426.651367 510.883209,427.287903 527.324524,427.924438 
	C527.315369,428.689148 527.306274,429.453857 527.297119,430.218567 
	C511.170807,430.218567 495.044495,430.218567 478.455902,429.718781 
	C477.995972,428.150940 477.998291,427.082886 478.000610,426.014832 
z"/>
<path fill="#D0D0D1" opacity="1.000000" stroke="none" 
	d="
M543.036987,584.986450 
	C546.984863,585.436523 550.717651,586.112244 554.786377,586.924744 
	C553.684387,589.773254 552.385681,592.574524 550.733215,595.148560 
	C550.153809,596.050964 548.730835,596.849487 547.648010,596.911743 
	C543.921021,597.126221 540.174194,596.994263 535.657898,596.994263 
	C538.275391,592.689453 540.548584,588.950806 543.036987,584.986450 
z"/>
<path fill="#D9DADC" opacity="1.000000" stroke="none" 
	d="
M499.503967,400.762970 
	C499.921906,401.544678 499.954651,402.364685 499.994507,403.594971 
	C488.632355,409.082306 477.263092,414.159363 465.463684,418.956726 
	C464.611572,418.076385 464.189667,417.475769 463.767792,416.875122 
	C475.551453,411.517151 487.335114,406.159210 499.503967,400.762970 
z"/>
<path fill="#EAEAEB" opacity="1.000000" stroke="none" 
	d="
M463.430573,416.942444 
	C464.189667,417.475769 464.611572,418.076385 465.104858,419.049194 
	C463.228577,420.547607 461.280884,421.673828 458.712524,422.885742 
	C458.196533,423.664246 458.301178,424.357056 458.405823,425.049866 
	C462.965912,425.264771 467.526031,425.479706 472.579529,426.096680 
	C473.377136,426.827118 473.681305,427.155518 473.985443,427.483917 
	C474.322784,427.005859 474.660126,426.527802 474.997467,426.049744 
	C475.758698,425.942566 476.519958,425.835388 477.640900,425.871521 
	C477.998291,427.082886 477.995972,428.150940 477.996338,429.619507 
	C470.305359,430.041565 462.611694,430.063141 454.451965,430.023376 
	C453.641602,428.157288 453.297302,426.352478 452.925293,424.142029 
	C456.296173,421.494141 459.694763,419.251923 463.430573,416.942444 
z"/>
<path fill="#D0D0D1" opacity="1.000000" stroke="none" 
	d="
M244.360382,452.560364 
	C245.376907,453.555847 246.041885,454.652344 247.020599,455.972717 
	C237.726120,461.433350 228.117920,466.670135 217.486572,472.464539 
	C225.640106,463.717072 234.293671,457.491821 244.360382,452.560364 
z"/>
<path fill="#D0D0D1" opacity="1.000000" stroke="none" 
	d="
M320.665527,453.926514 
	C320.508942,452.442780 320.597687,451.108795 320.840027,449.393860 
	C330.506897,452.724365 338.353851,458.756531 345.196075,466.117737 
	C337.101013,462.103912 329.005951,458.090057 320.665527,453.926514 
z"/>
<path fill="#D7D7D8" opacity="1.000000" stroke="none" 
	d="
M362.326996,596.877808 
	C360.070374,596.080994 358.145569,595.367188 357.345551,595.070557 
	C354.337463,592.608215 352.242218,590.511841 349.792175,588.984680 
	C346.772095,587.102234 347.399078,582.543213 351.663544,579.179443 
	C352.266418,579.183777 352.553925,579.359741 352.909363,580.161499 
	C352.726440,582.316589 352.475647,583.846008 352.021790,586.613525 
	C354.274689,585.421143 355.577179,584.731750 356.879639,584.042419 
	C357.891235,584.996277 358.902832,585.950134 360.001343,587.603760 
	C361.392975,591.127075 362.697754,593.950684 364.002502,596.774292 
	C363.554596,596.836487 363.106720,596.898621 362.326996,596.877808 
z"/>
<path fill="#E6E6E8" opacity="1.000000" stroke="none" 
	d="
M831.751465,423.660370 
	C830.563171,424.407593 829.024414,424.993652 827.507690,425.571259 
	C828.122681,425.852356 828.981445,426.244873 830.002441,426.933960 
	C823.052185,426.781982 815.939697,426.333466 808.405762,425.777710 
	C807.307678,421.007263 811.241028,422.471680 813.685242,421.340118 
	C819.774658,421.893677 825.587830,422.696411 831.751465,423.660370 
z"/>
<path fill="#BFC0C2" opacity="1.000000" stroke="none" 
	d="
M803.968994,445.199707 
	C813.391235,449.137604 820.855713,455.774994 828.170471,462.574554 
	C820.287048,458.545868 812.403564,454.517151 804.276367,449.857666 
	C804.011414,447.884491 803.990234,446.542084 803.968994,445.199707 
z"/>
<path fill="#E6E6E8" opacity="1.000000" stroke="none" 
	d="
M203.687668,565.396362 
	C207.748672,565.007141 211.678299,565.000488 216.120972,565.419312 
	C216.509293,567.564514 216.384567,569.284058 215.926956,571.005981 
	C213.397568,571.337280 211.201065,571.666199 209.004562,571.995117 
	C207.616516,571.980530 206.228455,571.965942 204.314880,571.849854 
	C203.711655,569.758484 203.633972,567.768738 203.687668,565.396362 
z"/>
<path fill="#D9DADC" opacity="1.000000" stroke="none" 
	d="
M803.679443,444.993652 
	C803.990234,446.542084 804.011414,447.884491 804.019653,449.629700 
	C799.897034,448.729675 795.787231,447.426849 791.333618,445.961365 
	C791.278015,444.168610 791.566223,442.538483 791.898071,440.555847 
	C795.757812,441.731384 799.573853,443.259491 803.679443,444.993652 
z"/>
<path fill="#C9C9CB" opacity="1.000000" stroke="none" 
	d="
M697.437988,596.908813 
	C697.603271,594.940674 698.214111,593.059021 698.909302,590.917786 
	C700.914001,591.784851 702.193604,592.338318 703.828979,592.917114 
	C705.378784,594.018982 706.572693,595.095459 708.679871,596.995300 
	C704.368958,596.995300 701.126282,596.995300 697.437988,596.908813 
z"/>
<path fill="#F2F2F2" opacity="1.000000" stroke="none" 
	d="
M545.200562,428.698944 
	C548.600647,428.743164 551.533569,428.743164 554.466431,428.743164 
	C554.459961,429.100189 554.453491,429.457184 554.447021,429.814209 
	C545.690063,429.814209 536.933105,429.814209 528.176147,429.814209 
	C528.166992,429.427704 528.157898,429.041229 528.148743,428.654724 
	C533.676941,428.654724 539.205200,428.654724 545.200562,428.698944 
z"/>
<path fill="#D9DADC" opacity="1.000000" stroke="none" 
	d="
M364.390320,596.854492 
	C362.697754,593.950684 361.392975,591.127075 360.123535,587.875305 
	C363.103058,590.258606 366.047241,593.070007 369.815338,596.668274 
	C367.407715,596.795593 366.092926,596.865173 364.390320,596.854492 
z"/>
<path fill="#D4D4D6" opacity="1.000000" stroke="none" 
	d="
M739.637024,559.776001 
	C739.445251,564.169128 739.010681,568.780945 738.315918,573.684875 
	C738.501953,569.316223 738.948120,564.655518 739.637024,559.776001 
z"/>
<path fill="#E6E6E8" opacity="1.000000" stroke="none" 
	d="
M804.754211,420.009460 
	C805.188232,421.195404 805.372192,422.294495 805.600769,423.660583 
	C803.093872,423.660583 800.901062,423.660583 798.708252,423.660583 
	C798.575134,423.231323 798.442017,422.802032 798.308899,422.372772 
	C800.029785,421.763672 801.750732,421.154602 803.728882,420.288513 
	C804.158752,419.995209 804.331482,419.958893 804.754211,420.009460 
z"/>
<path fill="#D9DADC" opacity="1.000000" stroke="none" 
	d="
M356.760254,583.751343 
	C355.577179,584.731750 354.274689,585.421143 352.021790,586.613525 
	C352.475647,583.846008 352.726440,582.316589 352.982880,580.411499 
	C354.205963,581.177307 355.423401,582.318787 356.760254,583.751343 
z"/>
<path fill="#D0D0D1" opacity="1.000000" stroke="none" 
	d="
M651.673035,541.797791 
	C649.692810,542.244324 647.360840,542.578308 644.711914,542.982422 
	C646.703796,542.596863 649.012512,542.141052 651.673035,541.797791 
z"/>
<path fill="#D9DADC" opacity="1.000000" stroke="none" 
	d="
M433.627441,460.633850 
	C433.855011,459.518585 434.196960,458.490662 434.538940,457.462738 
	C435.332611,458.105530 436.126282,458.748291 436.942444,459.794312 
	C435.890564,460.372101 434.816193,460.546631 433.627441,460.633850 
z"/>
<path fill="#BFC0C2" opacity="1.000000" stroke="none" 
	d="
M308.262085,596.963379 
	C308.878174,596.719604 309.723480,596.579285 310.764404,596.650024 
	C310.137085,596.929626 309.314178,596.998230 308.262085,596.963379 
z"/>
<path fill="#D4D4D6" opacity="1.000000" stroke="none" 
	d="
M814.981934,574.776917 
	C814.788818,574.391052 814.707092,573.829285 814.834473,573.124146 
	C815.060181,573.520813 815.076721,574.060913 814.981934,574.776917 
z"/>
<path fill="#D9DADC" opacity="1.000000" stroke="none" 
	d="
M458.127930,424.710388 
	C458.301178,424.357056 458.196533,423.664246 458.365479,422.933044 
	C458.376068,423.386719 458.113068,423.878815 458.127930,424.710388 
z"/>
<path fill="#F2F2F2" opacity="1.000000" stroke="none" 
	d="
M474.690613,425.869232 
	C474.660126,426.527802 474.322784,427.005859 473.985443,427.483917 
	C473.681305,427.155518 473.377136,426.827118 473.033905,426.207550 
	C473.457825,425.840454 473.920807,425.764587 474.690613,425.869232 
z"/>
<path fill="#BFC0C2" opacity="1.000000" stroke="none" 
	d="
M316.649353,596.898376 
	C316.640991,596.640320 316.929993,596.486084 317.686279,596.179565 
	C317.751251,596.352295 317.349030,596.677307 316.649353,596.898376 
z"/>
<path fill="#E6E6E8" opacity="1.000000" stroke="none" 
	d="
M831.837036,427.607056 
	C831.898743,427.382996 832.318909,427.281433 832.845215,427.429565 
	C832.699402,427.696014 832.447449,427.712799 831.837036,427.607056 
z"/>
<path fill="#D0D0D1" opacity="1.000000" stroke="none" 
	d="
M346.492615,467.498871 
	C346.510406,467.503510 346.474823,467.494232 346.492615,467.498871 
z"/>
<path fill="#E3E3E5" opacity="1.000000" stroke="none" 
	d="
M826.158936,416.707336 
	C826.192383,416.478577 826.599121,416.335907 827.148926,416.444214 
	C827.038757,416.727966 826.785461,416.760712 826.158936,416.707336 
z"/>
<path fill="#E3E3E5" opacity="1.000000" stroke="none" 
	d="
M788.406860,412.972778 
	C788.982361,412.757660 789.923218,412.546234 790.914429,412.654846 
	C790.233948,412.975403 789.503113,412.975922 788.406860,412.972778 
z"/>
<path fill="#0C0C10" opacity="1.000000" stroke="none" 
	d="
M688.029297,552.316833 
	C693.554504,556.490234 694.055054,558.357971 691.145630,564.738037 
	C687.080383,566.572510 683.222595,568.923401 679.165771,569.341370 
	C672.296143,570.049072 665.300781,569.535828 657.986755,569.535828 
	C657.841797,567.720825 657.728088,566.298035 657.469360,564.476135 
	C657.387939,562.357239 657.451660,560.637390 657.557861,558.140015 
	C657.485779,555.551880 657.371094,553.741394 657.256470,551.930908 
	C657.590027,551.570007 657.923523,551.209106 659.056824,550.826416 
	C665.254272,550.736450 670.651978,550.668152 676.049622,550.599976 
	C677.101562,550.633911 678.153442,550.667908 679.597534,550.643188 
	C681.328308,550.816956 682.666931,551.049316 684.662231,551.585083 
	C686.222351,552.031250 687.125854,552.174011 688.029297,552.316833 
z"/>
<path fill="#0C0C10" opacity="1.000000" stroke="none" 
	d="
M318.448883,567.840637 
	C318.536896,567.473572 318.624908,567.106445 318.594910,566.473755 
	C318.476868,561.133484 318.476868,556.058838 318.476868,550.975403 
	C327.467987,550.975403 335.734497,550.439209 343.899231,551.121277 
	C352.641968,551.851624 355.517517,556.634460 352.755981,564.516968 
	C349.683594,566.293823 346.736176,567.694336 343.136719,569.162720 
	C342.270844,569.336060 342.057007,569.441528 341.843201,569.546997 
	C341.432190,569.587524 341.021179,569.628113 339.945129,569.645264 
	C335.809967,569.660034 332.339874,569.698303 328.869781,569.736572 
	C326.877655,569.650146 324.885559,569.563721 322.129333,569.510254 
	C320.878448,569.603394 320.391632,569.663513 319.904846,569.723572 
	C319.597809,569.473328 319.290741,569.223083 318.802612,568.661621 
	C318.563965,568.180542 318.506409,568.010620 318.448883,567.840637 
z"/>
<path fill="#0C0C10" opacity="1.000000" stroke="none" 
	d="
M801.988525,567.501282 
	C800.465210,572.323120 798.826050,576.850281 797.026611,581.691711 
	C786.613953,589.532898 775.549194,590.899231 763.342529,586.321899 
	C755.918762,583.435364 752.522583,577.848145 751.074341,570.334839 
	C751.318298,568.041992 751.725525,566.085999 752.406372,563.524170 
	C753.495361,561.295654 754.310669,559.672913 755.125977,558.050232 
	C765.062256,549.414612 776.304382,547.826111 788.538513,551.981628 
	C795.871277,554.472351 800.597290,559.356201 801.988525,567.501282 
z"/>
<path fill="#CECED0" opacity="1.000000" stroke="none" 
	d="
M754.742798,558.045532 
	C754.310669,559.672913 753.495361,561.295654 752.430298,563.154907 
	C748.788147,559.930603 750.370483,558.495667 754.742798,558.045532 
z"/>
<path fill="#EFEFF0" opacity="1.000000" stroke="none" 
	d="
M329.138275,570.065735 
	C332.339874,569.698303 335.809967,569.660034 339.653351,569.764160 
	C336.486694,570.069397 332.946716,570.232178 329.138275,570.065735 
z"/>
<path fill="#EFEFF0" opacity="1.000000" stroke="none" 
	d="
M320.066467,569.979492 
	C320.391632,569.663513 320.878448,569.603394 321.721191,569.647522 
	C321.460785,569.912964 320.844421,570.074158 320.066467,569.979492 
z"/>
<path fill="#EFEFF0" opacity="1.000000" stroke="none" 
	d="
M341.995483,569.752319 
	C342.057007,569.441528 342.270844,569.336060 342.837738,569.288269 
	C342.843079,569.549805 342.495422,569.753784 341.995483,569.752319 
z"/>
<path fill="#EFEFF0" opacity="1.000000" stroke="none" 
	d="
M318.262329,567.966919 
	C318.506409,568.010620 318.563965,568.180542 318.605469,568.619141 
	C318.418243,568.622986 318.247009,568.358093 318.262329,567.966919 
z"/>
<path fill="#0C0C10" opacity="1.000000" stroke="none" 
	d="
M216.259857,571.003662 
	C216.384567,569.284058 216.509293,567.564514 216.552704,565.417480 
	C216.471405,560.533325 216.471405,556.076599 216.471405,550.861938 
	C226.326477,551.435425 236.010544,549.532715 245.467407,552.947144 
	C251.208023,555.019775 255.544144,558.506226 257.764038,564.736938 
	C258.004517,567.361328 258.029510,569.716797 258.091309,572.455200 
	C255.231384,582.489075 247.736649,586.532837 238.655502,587.493774 
	C231.457306,588.255432 224.108566,587.594299 216.645279,586.987793 
	C216.398972,586.243347 216.334061,586.076111 216.269150,585.908813 
	C216.375565,582.274719 216.481995,578.640686 216.550964,574.274048 
	C216.428970,572.695618 216.344406,571.849609 216.259857,571.003662 
z"/>
<path fill="#EFEFF0" opacity="1.000000" stroke="none" 
	d="
M215.926971,571.005981 
	C216.344406,571.849609 216.428970,572.695618 216.399689,573.845459 
	C214.038681,573.608704 211.791489,573.067993 209.274429,572.261230 
	C211.201065,571.666199 213.397568,571.337280 215.926971,571.005981 
z"/>
<path fill="#E6E6E8" opacity="1.000000" stroke="none" 
	d="
M216.106598,586.020874 
	C216.334061,586.076111 216.398972,586.243347 216.380325,586.666504 
	C216.179184,586.659241 216.061615,586.396057 216.106598,586.020874 
z"/>
<path fill="#0C0C10" opacity="1.000000" stroke="none" 
	d="
M567.731934,565.709106 
	C570.229553,561.498596 572.634338,557.647278 575.348328,553.300781 
	C577.818176,557.770691 580.022827,561.760742 582.536987,565.904297 
	C584.323792,568.776184 585.801025,571.494507 587.576111,574.760864 
	C579.130981,574.760864 571.222473,574.760864 562.703979,574.760864 
	C564.455627,571.675537 566.047302,568.871826 567.731934,565.709106 
z"/>
<path fill="#D0D0D1" opacity="1.000000" stroke="none" 
	d="
M675.879883,550.262756 
	C670.651978,550.668152 665.254272,550.736450 659.400635,550.677795 
	C664.533081,550.342468 670.121582,550.134033 675.879883,550.262756 
z"/>
<path fill="#D0D0D1" opacity="1.000000" stroke="none" 
	d="
M656.991089,552.132690 
	C657.371094,553.741394 657.485779,555.551880 657.456787,557.720581 
	C657.117432,556.163940 656.921570,554.249207 656.991089,552.132690 
z"/>
<path fill="#EAEAEB" opacity="1.000000" stroke="none" 
	d="
M687.976562,551.954956 
	C687.125854,552.174011 686.222351,552.031250 685.066589,551.655762 
	C685.850769,551.479675 686.887268,551.536377 687.976562,551.954956 
z"/>
</svg>